<svg width="828" height="828" viewBox="0 0 828 828" fill="none" xmlns="http://www.w3.org/2000/svg">
<rect width="828" height="828" rx="120" fill="#15284F"/>
<path d="M623.657 679.912L577.185 633.463C599.299 593.128 611.324 549.601 611.324 505.013V500.107H635.99V475.453H611.324V364.508C611.324 357.703 605.811 352.18 598.99 352.18H512.659V278.217C512.659 271.413 507.146 265.89 500.325 265.89H463.326V228.908C463.326 126.95 380.337 44 278.329 44C176.322 44 93.3325 126.95 93.3325 228.908V265.89H56.3331C49.5129 265.89 44 271.413 44 278.217V364.508V426.144V487.78V549.416V611.052V648.034C44 682.02 71.6632 709.67 105.666 709.67H308.73C336.443 737.16 369.816 761.715 408.197 782.179C410.01 783.152 411.996 783.633 413.994 783.633C415.992 783.633 417.977 783.152 419.803 782.179C482.048 748.994 531.121 705.072 564.075 655.208L606.218 697.343H561.991V721.997H635.99C642.81 721.997 648.323 716.475 648.323 709.67V635.707H623.657V679.912ZM586.657 505.013C586.657 543.043 576.988 580.345 559.006 615.28L537.522 593.806C550.793 564.579 559.068 532.947 561.337 500.095H586.657V505.013ZM537.325 475.453H413.994C409.011 475.453 404.497 478.461 402.598 483.059C400.686 487.669 401.747 492.97 405.274 496.495L507.577 598.75C486.216 638.382 454.224 672.158 413.994 695.531C337.738 651.239 290.662 569.756 290.662 481.259V426.144H537.325V475.453ZM443.766 500.107H536.548C534.562 526.204 528.519 551.487 518.837 575.131L443.766 500.107ZM117.999 228.908C117.999 140.547 189.925 68.6544 278.329 68.6544C366.733 68.6544 438.66 140.547 438.66 228.908V265.89H401.66V228.908C401.66 160.936 346.334 105.636 278.329 105.636C210.324 105.636 154.998 160.936 154.998 228.908V265.89H117.999V228.908ZM376.994 265.89H179.664V228.908C179.664 174.533 223.928 130.291 278.329 130.291C332.731 130.291 376.994 174.533 376.994 228.908V265.89ZM68.6662 500.107H142.665V537.089H68.6662V500.107ZM142.665 475.453H68.6662V438.471H142.665V475.453ZM68.6662 561.743H142.665V598.725H68.6662V561.743ZM142.665 413.817H68.6662V376.835H142.665V413.817ZM105.666 685.015C85.2666 685.015 68.6662 668.423 68.6662 648.034V623.379H154.998C161.818 623.379 167.331 617.857 167.331 611.052V549.416V487.78V426.144V364.508C167.331 357.703 161.818 352.18 154.998 352.18H68.6662V290.544H487.992V352.18H228.997C222.177 352.18 216.664 357.703 216.664 364.508V505.013C216.664 569.386 241.515 631.602 286.173 685.015H105.666ZM413.994 757.278C305.746 697.515 241.33 603.619 241.33 505.013V376.835H586.657V475.453H561.991V413.817C561.991 407.012 556.478 401.489 549.658 401.489H278.329C271.509 401.489 265.996 407.012 265.996 413.817V481.247C265.996 581.035 320.447 672.713 408.086 720.493C409.924 721.492 411.959 721.997 413.994 721.997C416.029 721.997 418.064 721.492 419.901 720.493C464.929 695.95 501.115 659.757 525.732 616.895L546.229 637.383C516.544 684.029 471.552 725.51 413.994 757.278Z" fill="url(#paint0_linear_43_3)"/>
<path d="M685.322 475.453H660.656V500.107H685.322V475.453Z" fill="url(#paint1_linear_43_3)"/>
<path d="M734.655 475.453H709.989V500.107H734.655V475.453Z" fill="url(#paint2_linear_43_3)"/>
<path d="M783.987 475.453H759.321V500.107H783.987V475.453Z" fill="url(#paint3_linear_43_3)"/>
<path d="M734.655 142.618H709.989V167.272H734.655V142.618Z" fill="url(#paint4_linear_43_3)"/>
<path d="M783.987 142.618H759.321V167.272H783.987V142.618Z" fill="url(#paint5_linear_43_3)"/>
<path d="M759.321 265.89H616.429L644.709 237.624L627.27 220.193L577.938 269.502C573.115 274.322 573.115 282.113 577.938 286.932L627.27 336.241L644.709 318.811L616.429 290.544H759.321V265.89Z" fill="url(#paint6_linear_43_3)"/>
<path d="M706.375 348.569L688.936 331.138L639.603 380.447C634.781 385.267 634.781 393.058 639.603 397.878L688.936 447.186L706.375 429.756L678.095 401.489H783.987V376.835H678.095L706.375 348.569Z" fill="url(#paint7_linear_43_3)"/>
<path d="M553.271 212.969L570.71 195.538L542.431 167.272H685.322V142.618H542.431L570.71 114.351L553.271 96.9207L503.939 146.23C499.117 151.049 499.117 158.84 503.939 163.66L553.271 212.969Z" fill="url(#paint8_linear_43_3)"/>
<defs>
<linearGradient id="paint0_linear_43_3" x1="44" y1="44" x2="648.323" y2="44" gradientUnits="userSpaceOnUse">
<stop stop-color="#00FF8F"/>
<stop offset="0.0001" stop-color="#00FF8F"/>
<stop offset="1" stop-color="#00A1FF"/>
</linearGradient>
<linearGradient id="paint1_linear_43_3" x1="660.656" y1="475.453" x2="685.322" y2="475.453" gradientUnits="userSpaceOnUse">
<stop stop-color="#00FF8F"/>
<stop offset="0.0001" stop-color="#00FF8F"/>
<stop offset="1" stop-color="#00A1FF"/>
</linearGradient>
<linearGradient id="paint2_linear_43_3" x1="709.989" y1="475.453" x2="734.655" y2="475.453" gradientUnits="userSpaceOnUse">
<stop stop-color="#00FF8F"/>
<stop offset="0.0001" stop-color="#00FF8F"/>
<stop offset="1" stop-color="#00A1FF"/>
</linearGradient>
<linearGradient id="paint3_linear_43_3" x1="759.321" y1="475.453" x2="783.987" y2="475.453" gradientUnits="userSpaceOnUse">
<stop stop-color="#00FF8F"/>
<stop offset="0.0001" stop-color="#00FF8F"/>
<stop offset="1" stop-color="#00A1FF"/>
</linearGradient>
<linearGradient id="paint4_linear_43_3" x1="709.989" y1="142.618" x2="734.655" y2="142.618" gradientUnits="userSpaceOnUse">
<stop stop-color="#00FF8F"/>
<stop offset="0.0001" stop-color="#00FF8F"/>
<stop offset="1" stop-color="#00A1FF"/>
</linearGradient>
<linearGradient id="paint5_linear_43_3" x1="759.321" y1="142.618" x2="783.987" y2="142.618" gradientUnits="userSpaceOnUse">
<stop stop-color="#00FF8F"/>
<stop offset="0.0001" stop-color="#00FF8F"/>
<stop offset="1" stop-color="#00A1FF"/>
</linearGradient>
<linearGradient id="paint6_linear_43_3" x1="574.321" y1="220.193" x2="759.321" y2="220.193" gradientUnits="userSpaceOnUse">
<stop stop-color="#00FF8F"/>
<stop offset="0.0001" stop-color="#00FF8F"/>
<stop offset="1" stop-color="#00A1FF"/>
</linearGradient>
<linearGradient id="paint7_linear_43_3" x1="635.987" y1="331.138" x2="783.987" y2="331.138" gradientUnits="userSpaceOnUse">
<stop stop-color="#00FF8F"/>
<stop offset="0.0001" stop-color="#00FF8F"/>
<stop offset="1" stop-color="#00A1FF"/>
</linearGradient>
<linearGradient id="paint8_linear_43_3" x1="500.322" y1="96.9207" x2="685.322" y2="96.9207" gradientUnits="userSpaceOnUse">
<stop stop-color="#00FF8F"/>
<stop offset="0.0001" stop-color="#00FF8F"/>
<stop offset="1" stop-color="#00A1FF"/>
</linearGradient>
</defs>
</svg>
